<svg fill="none" xmlns="http://www.w3.org/2000/svg" viewBox="0 0 388 380">
  <path fill="#9B37FF" d="M.292969 240.964h8.90608v26.2729H.292969zM15.4336 229.386h8.90608v48.9835H15.4336zm15.1387-14.249h8.90608v73.2311H30.5723zm15.1406-13.806h8.90608v83.7172H45.7129zm15.1406-14.367h8.90608v86.5055H60.8535zm15.1426-12.351h8.90608v87.7249H75.9961zm15.1387-14.696h8.90608v91.2873H91.1348zm15.1402-13.805h8.90608v92.1779H106.275zm15.141-12.466h8.90608v93.5139H121.416zm15.141-14.251h8.90608v95.7404H136.557zm15.14-12.022h8.90608v96.1857H151.697zm15.139-15.7402h8.90608v101.237H166.836zm15.141-13.2051h8.90608v103.756H181.977zm15.142-13.8071h8.90608v106.428H197.119zm15.139-12.4653h8.90608v107.764H212.258zm15.138-16.0332h8.90608v112.217H227.396zm15.143-12.4673h8.90608v112.662H242.539zm15.139-14.25001h8.90608v113.553H257.678zM272.82.625977h8.90608v112.09H272.82z"/>
  <path fill="#B901F2" d="M.292969 138.872h8.90608v-26.2729H.292969zM15.4336 150.45h8.90608v-48.9835H15.4336zm15.1387 14.249h8.90608V91.4679H30.5723zm15.1406 13.807h8.90608V94.7888H45.7129zm15.1406 10.686h8.90608v-82.8266H60.8535zm15.1426 16.031h8.90608v-87.7249H75.9961zm15.1387 14.695h8.90608v-91.2873H91.1348zm15.1402 13.806h8.90608v-92.1779H106.275zm15.141 12.467h8.90608v-93.5139H121.416zm15.141 14.25h8.90608v-95.7404H136.557zm15.14 12.023h8.90608v-96.1857H151.697zm15.139 15.74h8.90608V186.967H166.836zm15.141 13.205h8.90608V197.653H181.977zm15.142 13.807h8.90608V208.788H197.119zm15.139 12.465h8.90608V219.917H212.258zm15.138 16.033h8.90608V231.497H227.396zm15.143 12.468h8.90608V243.52H242.539zm15.139 14.25h8.90608V256.879H257.678zm15.142 8.778h8.90608V267.12H272.82z"/>
  <path fill="#FF34F0" d="M287.959.625977h8.90608v378.749H287.959zM303.1 9.40479h8.90608v360.251H303.1zm15.138 7.12501h8.90608v346.001H318.238zm15.141 7.125h8.90608v332.197H333.379zm15.141 6.6792h8.90608v317.502H348.52zm15.142 8.4604h8.90608v302.807H363.662zm15.137 7.5689h8.90608v286.331H378.799z"/>
</svg>
